<svg width="74" height="73" viewBox="0 0 74 73" fill="none" xmlns="http://www.w3.org/2000/svg">
<g clip-path="url(#clip0)">
<path d="M37 73C57.4345 73 74 56.6584 74 36.5C74 16.3416 57.4345 0 37 0C16.5655 0 0 16.3416 0 36.5C0 56.6584 16.5655 73 37 73Z" fill="#52B788"/>
<path d="M37.6847 -0.707911C37.2937 -1.09798 36.6606 -1.09724 36.2705 -0.706263L29.914 5.66511C29.5239 6.05609 29.5246 6.68925 29.9156 7.07932C30.3066 7.46939 30.9398 7.46865 31.3298 7.07768L36.9801 1.41423L42.6435 7.06449C43.0345 7.45456 43.6677 7.45382 44.0577 7.06284C44.4478 6.67187 44.4471 6.0387 44.0561 5.64863L37.6847 -0.707911ZM38.0215 36.9988L37.9784 -0.00114484L35.9784 0.00118573L36.0215 37.0012L38.0215 36.9988Z" fill="black"/>
<line y1="36" x2="37" y2="36" stroke="black" stroke-width="2" stroke-dasharray="4 4"/>
</g>
<defs>
<clipPath id="clip0">
<rect width="74" height="73" fill="white"/>
</clipPath>
</defs>
</svg>
