<svg width="108" height="64" viewBox="0 0 108 64" fill="none" xmlns="http://www.w3.org/2000/svg">
<path d="M102 0H6C2.68629 0 0 1.59188 0 3.55556V60.4444C0 62.4081 2.68629 64 6 64H102C105.314 64 108 62.4081 108 60.4444V3.55556C108 1.59188 105.314 0 102 0Z" fill="#FFD764"/>
<path d="M41.6154 48.494C44.2754 48.494 46.4414 47.772 48.1894 46.29C49.8994 44.808 50.7734 42.68 50.7734 39.944V21.4H46.4034V39.944C46.4034 41.312 45.9854 42.376 45.1494 43.136C44.3134 43.896 43.1734 44.238 41.6534 44.238C39.2974 44.238 37.6634 43.326 36.8274 41.426L33.0654 43.63C34.6234 46.898 37.4734 48.494 41.6154 48.494ZM64.6986 48.494C67.5106 48.494 69.7526 47.81 71.5006 46.404C73.2486 44.998 74.1226 43.098 74.1226 40.666C74.1226 39.83 74.0086 39.032 73.8186 38.348C73.5906 37.664 73.2486 37.056 72.7546 36.524C72.2606 35.992 71.8046 35.574 71.3866 35.194C70.9306 34.852 70.2846 34.51 69.4486 34.13C68.6126 33.788 67.9286 33.522 67.4726 33.37C67.0166 33.218 66.2566 32.952 65.2686 32.61C63.2166 32.002 61.8106 31.394 61.0506 30.824C60.2906 30.254 59.9106 29.456 59.9106 28.468C59.9106 27.48 60.2906 26.682 61.0506 26.074C61.8106 25.466 62.7986 25.162 64.0906 25.162C66.6746 25.162 68.5366 26.416 69.6766 28.886L73.3626 26.758C72.4886 24.934 71.2726 23.528 69.6766 22.464C68.0806 21.438 66.2186 20.906 64.0906 20.906C61.7346 20.906 59.7206 21.628 58.0486 22.996C56.3766 24.364 55.5406 26.226 55.5406 28.582C55.5406 29.798 55.7306 30.824 56.1866 31.698C56.6046 32.61 57.2506 33.332 58.1246 33.94C58.9986 34.548 59.8346 35.004 60.6326 35.308C61.3926 35.65 62.4186 35.992 63.7106 36.372C65.9526 37.056 67.5106 37.702 68.4226 38.272C69.2966 38.842 69.7526 39.678 69.7526 40.742C69.7526 41.806 69.3346 42.642 68.4986 43.288C67.6626 43.934 66.4466 44.238 64.8126 44.238C61.4686 44.238 59.2646 42.756 58.2006 39.754L54.4386 41.958C55.1226 44.01 56.3766 45.606 58.1626 46.746C59.9486 47.924 62.1146 48.494 64.6986 48.494Z" fill="black"/>
</svg>
